<svg width="125" height="125" viewBox="0 0 125 125" fill="none" xmlns="http://www.w3.org/2000/svg">
<path fill-rule="evenodd" clip-rule="evenodd" d="M47.7511 3.50314L33.1521 7.16553L21.9386 17.1838L10.7255 27.2016L5.36297 41.4602L0 55.7188L1.76991 70.5795C3.30422 83.4588 3.67061 85.6653 4.52077 87.1322C5.05988 88.063 8.95435 93.8456 13.1746 99.9823L20.8482 111.14L33.9339 118.07L47.0192 125H62.478H77.9364L91.1038 118.04L104.271 111.079L112.8 98.5738L121.329 86.0681L123.164 70.8913L125 55.7146L119.654 41.4907L114.308 27.2664L103.63 17.7063C97.7576 12.4484 92.574 7.88608 92.1108 7.56875C91.648 7.251 85.0454 5.45534 77.4384 3.57845C69.8318 1.70199 63.3248 0.0929237 62.979 0.00364873C62.6331 -0.0860493 55.7807 1.48917 47.7511 3.50314ZM60.2717 15.7507C60.0264 15.9982 44.0817 11.2696 43.5888 10.8038C43.4152 10.6392 43.5158 10.1691 43.813 9.75916C44.1803 9.25228 46.8988 8.37053 52.3037 7.00475L60.2541 4.99585L60.3719 10.2635C60.4364 13.1605 60.3916 15.6301 60.2717 15.7507ZM72.5651 6.97598C79.2695 8.58504 80.3213 8.94934 80.7028 9.7947C80.9438 10.3287 81.0633 10.8262 80.9681 10.9007C80.6609 11.1406 64.8071 15.8392 64.3041 15.8392C63.9595 15.8392 63.8174 14.2225 63.8174 10.2935C63.8174 6.03796 63.9394 4.79192 64.3414 4.93789C64.6298 5.04239 68.3302 5.95926 72.5651 6.97598ZM95.4917 16.484L100.277 20.7049L96.8244 23.9691C94.9254 25.7643 93.2678 27.2401 93.1408 27.2482C92.9366 27.2613 86.8677 14.2305 86.7218 13.4664C86.6623 13.1541 89.7565 12.0723 90.3623 12.1937C90.5517 12.2318 92.8599 14.1624 95.4917 16.484ZM37.5169 13.2426C37.8829 13.6111 31.536 27.7635 31.0828 27.5892C30.9189 27.5261 29.2702 26.1142 27.4181 24.4519L24.0514 21.4292L28.9474 16.9452C33.7524 12.5449 33.8752 12.4653 35.5206 12.6908C36.4429 12.8174 37.3412 13.0657 37.5169 13.2426ZM50.3158 17.0332L58.4033 19.4859L53.6624 23.9535L48.9215 28.421L41.9132 28.7328L34.9048 29.0451L37.0365 24.4519C38.209 21.9255 39.7035 18.6689 40.3575 17.2142C41.0114 15.76 41.6998 14.5724 41.8872 14.5753C42.0746 14.5783 45.8676 15.6843 50.3158 17.0332ZM83.8586 16.5796C84.3323 17.6847 85.7706 20.8419 87.0547 23.5951L89.3893 28.6004L82.1604 28.292L74.9311 27.9831L70.409 23.7313L65.8874 19.4795L73.7606 17.0619C78.0907 15.7325 81.9407 14.6278 82.3159 14.6071C82.7456 14.5838 83.3161 15.3132 83.8586 16.5796ZM66.123 24.9482L69.8959 28.5175L62.1405 28.5247L54.3851 28.5314L58.158 24.9562C60.2331 22.99 62.0252 21.3806 62.1405 21.3797C62.2558 21.3793 64.0479 22.985 66.123 24.9482ZM106.983 26.828C109.956 29.5672 110.808 30.6347 111.52 32.5116C112.37 34.7549 112.375 34.8962 111.685 37.3667L110.974 39.9117L103.331 35.1737C99.1284 32.5683 95.7034 30.3411 95.721 30.2247C95.7554 29.9979 102.909 23.5172 103.168 23.4783C103.253 23.4656 104.97 24.9727 106.983 26.828ZM25.1682 27.5951L28.6497 30.8594L21.3953 35.3887L14.1408 39.9184L13.3464 37.4619L12.5524 35.0054L13.556 32.4231C14.3919 30.2729 15.0849 29.3768 17.6962 27.0709C19.4212 25.5477 21.0247 24.308 21.2595 24.316C21.4946 24.3241 23.2532 25.7999 25.1682 27.5951ZM88.3408 32.3402H90.5195L90.7714 37.7213C90.9097 40.6804 90.9764 43.1493 90.9194 43.2068C90.8624 43.2643 88.2784 40.7257 85.1766 37.5651L79.5378 31.8185L82.85 32.0796C84.6715 32.223 87.1423 32.3402 88.3408 32.3402ZM38.8144 37.9971C35.8501 41.1086 33.3944 43.6312 33.3579 43.6032C33.3214 43.5753 33.3956 41.1319 33.5231 38.1736L33.7549 32.7946L37.3626 32.6542C39.3468 32.5772 41.6981 32.4752 42.5873 32.4274L44.2042 32.3402L38.8144 37.9971ZM82.5733 41.3274L91.0661 49.8914V62.1614V74.4314L82.5808 83.0031L74.0956 91.5748H62.1481H50.2006L41.7078 83.0107L33.215 74.4467V62.1767V49.9066L41.7002 41.335L50.1855 32.7633H62.133H74.0805L82.5733 41.3274ZM102.673 39.2762L109.828 43.7615L107.678 51.2217L105.529 58.6818L102.457 55.3482C100.768 53.5149 98.3872 50.8722 97.1665 49.4759L94.9472 46.9373L94.6453 40.6364C94.3909 35.3206 94.4353 34.3711 94.9308 34.5632C95.254 34.688 98.7377 36.809 102.673 39.2762ZM29.6613 41.313L29.3536 47.7467L24.5042 52.9593C21.8371 55.8263 19.5218 58.0243 19.3592 57.8437C18.8037 57.2255 15.2056 44.001 15.5121 43.7023C16.0889 43.1404 29.2324 34.9347 29.6005 34.9068C29.8093 34.8907 29.8357 37.6624 29.6613 41.313ZM10.2288 42.1698C9.9177 42.4837 9.8632 42.3183 10.0456 41.6147C10.194 41.0426 10.3839 40.8505 10.4887 41.1674C10.5893 41.4729 10.4727 41.9235 10.2288 42.1698ZM114.961 41.885C114.961 42.2476 114.77 42.4249 114.535 42.2789C114.301 42.1325 114.217 41.8359 114.35 41.6193C114.71 41.0325 114.961 41.1416 114.961 41.885ZM13.9652 53.3545C15.0979 57.2716 16.0256 60.5244 16.026 60.5824C16.0269 60.6404 13.5967 60.6882 10.6266 60.6882C5.37974 60.6882 5.21834 60.6611 4.97268 59.7362C4.47047 57.8449 4.73206 56.0543 6.04084 52.4283C7.28631 48.9779 7.51227 48.6462 9.49933 47.3532C10.6689 46.5921 11.6884 46.0285 11.7656 46.1008C11.8423 46.1732 12.8321 49.4374 13.9652 53.3545ZM119.032 52.5811C120.233 55.825 120.445 56.8667 120.218 58.3988L119.94 60.2651H114.488C109.493 60.2651 109.054 60.2029 109.251 59.5246C109.369 59.1172 110.249 56.0239 111.205 52.6501C112.162 49.2766 113.031 46.3742 113.137 46.2003C113.244 46.0268 114.285 46.5024 115.45 47.2572C117.445 48.5485 117.656 48.8629 119.032 52.5811ZM102.743 63.1879C102.307 63.7481 100.539 65.6973 98.814 67.52L95.6774 70.8334L95.6858 62.2702L95.6942 53.707L99.6147 57.938L103.535 62.169L102.743 63.1879ZM28.5835 62.2748L28.5634 70.208L24.8504 66.2169L21.1379 62.2253L24.7657 58.2926C26.7612 56.1292 28.441 54.3556 28.4988 54.3505C28.5567 54.3454 28.5944 57.9118 28.5835 62.2748ZM15.8701 64.6586C15.9564 64.739 11.5157 78.9219 11.3531 79.086C11.2709 79.1694 10.2422 78.6346 9.06754 77.8979L6.93166 76.5588L6.42316 72.1141C6.14354 69.6694 5.80859 66.8769 5.67906 65.9089L5.44304 64.1479L10.6304 64.3785C13.4835 64.5054 15.8412 64.6311 15.8701 64.6586ZM119.415 65.2365C119.292 65.8763 118.966 68.4961 118.692 71.0576L118.193 75.7156L115.921 77.13C114.671 77.9081 113.562 78.4569 113.456 78.3494C113.258 78.1497 109.092 64.7508 109.092 64.3142C109.092 64.1818 111.465 64.073 114.365 64.073H119.639L119.415 65.2365ZM109.931 80.5563C109.931 80.9676 94.7895 90.3969 94.5376 90.1426C94.4273 90.0313 94.4722 87.1157 94.6369 83.6636L94.9371 77.3868L100.232 71.6677L105.527 65.9482L107.729 73.1012C108.94 77.0357 109.931 80.39 109.931 80.5563ZM25.7241 73.0026L29.3427 76.9777L29.6521 83.9094C29.912 89.7241 29.8692 90.7861 29.3876 90.498C25.569 88.2153 15.694 82.0185 15.2916 81.6526C14.8719 81.2709 14.931 80.6633 15.5838 78.6528C16.034 77.2662 17.0967 73.8497 17.9456 71.061L19.4887 65.991L20.7975 67.509C21.5169 68.3443 23.7341 70.816 25.7241 73.0026ZM42.3416 92.7696C40.8957 92.8449 38.3448 92.781 36.6734 92.6279L33.6342 92.3486V89.2735C33.6342 87.5824 33.518 84.9807 33.3755 83.4922L33.1173 80.7856L39.0437 86.7091L44.9705 92.6325L42.3416 92.7696ZM90.7739 86.5601L90.5249 91.8841L87.3783 92.1527C85.6482 92.3004 83.1786 92.421 81.8908 92.421H79.5495L85.1825 86.7239C88.2809 83.5904 90.8624 81.0738 90.9194 81.1313C90.9764 81.1888 90.911 83.6318 90.7739 86.5601ZM117.251 82.7954C117.087 83.7846 116.7 84.9587 116.392 85.4047C115.852 86.1878 115.819 86.1802 115.452 85.1931C114.504 82.6359 114.515 82.4797 115.697 81.7397C117.389 80.6807 117.581 80.811 117.251 82.7954ZM9.22852 82.5034C9.95166 83.0145 10.1022 83.419 9.89632 84.3016C9.47543 86.1066 9.02227 86.2699 8.30751 84.8749C7.60575 83.5053 7.42046 81.8434 7.96879 81.8434C8.14821 81.8434 8.71498 82.1404 9.22852 82.5034ZM112.116 87.3683C112.545 88.6346 112.822 89.9708 112.73 90.3372C112.554 91.0391 104.981 102.152 104.678 102.152C104.395 102.152 96.3184 94.7798 96.1801 94.3943C96.0329 93.986 110.369 84.8423 110.947 84.9761C111.16 85.0256 111.686 86.1019 112.116 87.3683ZM22.035 90.5115C28.3559 94.4591 28.6351 94.6901 27.904 95.3687C24.443 98.5831 20.1846 102.251 20.0777 102.112C18.3954 99.9209 12.2544 90.5259 12.2544 90.1434C12.2544 89.8515 12.5487 88.6122 12.9088 87.3886C13.5401 85.243 13.5954 85.1859 14.4808 85.766C14.9855 86.0968 18.3849 88.2323 22.035 90.5115ZM66.3389 99.6349C64.1519 101.717 62.2625 103.422 62.1405 103.422C62.0185 103.422 60.1292 101.717 57.9421 99.6349L53.9659 95.8481H62.1405H70.3151L66.3389 99.6349ZM89.3893 96.0563C89.3893 96.1938 87.9375 99.4779 86.163 103.355C84.3889 107.231 82.9221 110.439 82.9041 110.484C82.868 110.572 66.1813 105.514 66.0308 105.37C65.9805 105.321 68.1067 103.292 70.7566 100.861L75.5746 96.4405L80.9099 96.2095C83.8444 96.0825 86.9528 95.9395 87.8172 95.8921C88.6821 95.8447 89.3893 95.9184 89.3893 96.0563ZM49.4158 97.4318C50.1414 97.8173 52.4572 99.7682 54.5624 101.767L58.3898 105.401L50.3284 107.843C45.8944 109.186 42.0691 110.361 41.8272 110.454C41.5061 110.578 36.5041 100.496 34.9844 96.6613C34.9199 96.4989 37.8439 96.4481 41.4822 96.5484C46.5635 96.6884 48.4026 96.8932 49.4158 97.4318ZM97.851 101.348C100.229 103.465 102.231 105.348 102.3 105.532C102.595 106.328 100.167 108.149 95.6774 110.499L90.8565 113.024L88.6808 112.348L86.5051 111.672L89.7288 104.597C91.5017 100.705 93.0817 97.5156 93.2397 97.5097C93.3982 97.5033 95.4733 99.2304 97.851 101.348ZM34.5619 104.871L37.7349 111.822L35.6937 112.316L33.6522 112.81L28.7172 110.161C23.942 107.597 22.7762 106.721 22.7481 105.676C22.7347 105.175 30.5404 97.9213 31.0921 97.9213C31.2551 97.9213 32.8163 101.049 34.5619 104.871ZM60.4637 114.846V120.769H54.578C47.1583 120.769 45.9984 120.304 44.1404 116.59L42.9038 114.117L51.1597 111.564C55.7006 110.16 59.6517 108.991 59.9397 108.966C60.3358 108.933 60.4637 110.365 60.4637 114.846ZM72.3739 111.319C76.7752 112.637 80.5368 113.856 80.733 114.027C80.9292 114.198 80.5888 115.465 79.9763 116.841C78.3292 120.546 77.7704 120.769 70.1458 120.769H63.8174V114.846C63.8174 111.588 63.9423 108.922 64.0945 108.922C64.2471 108.922 67.973 110.001 72.3739 111.319ZM86.0356 115.465C86.0356 115.573 85.6625 115.863 85.2068 116.11C84.5302 116.475 84.4229 116.439 84.6224 115.913C84.8396 115.342 86.0356 114.963 86.0356 115.465Z" fill="#66CDAA"/>
</svg>
