<svg width="70" height="70" viewBox="0 0 70 70" fill="none" xmlns="http://www.w3.org/2000/svg">
<path fill-rule="evenodd" clip-rule="evenodd" d="M26.7406 1.96176L18.5652 4.0127L12.2856 9.62292L6.00629 15.2329L3.00326 23.2177L0 31.2025L0.99115 39.5245C1.85036 46.7369 2.05554 47.9726 2.53163 48.794C2.83353 49.3153 5.01444 52.5535 7.37775 55.9901L11.675 62.2386L19.003 66.1192L26.3307 70H34.9877H43.6444L51.0181 66.1024L58.3919 62.2045L63.1681 55.2013L67.9442 48.1981L68.972 39.6992L70 31.2002L67.0064 23.2348L64.0127 15.2692L58.033 9.91554C54.7442 6.97111 51.8414 4.4162 51.582 4.2385C51.3229 4.06056 47.6254 3.05499 43.3655 2.00393C39.1058 0.953114 35.4619 0.0520373 35.2682 0.00204329C35.0745 -0.0481876 31.2372 0.833934 26.7406 1.96176ZM33.7521 8.82041C33.6148 8.95902 24.6858 6.311 24.4097 6.05013C24.3125 5.95796 24.3689 5.69472 24.5353 5.46513C24.7409 5.18128 26.2634 4.6875 29.2901 3.92266L33.7423 2.79768L33.8083 5.74756C33.8444 7.36987 33.8193 8.75288 33.7521 8.82041ZM40.6364 3.90655C44.3909 4.80762 44.9799 5.01163 45.1936 5.48503C45.3285 5.78405 45.3954 6.06269 45.3422 6.10439C45.1701 6.23873 36.292 8.86993 36.0103 8.86993C35.8173 8.86993 35.7377 7.96459 35.7377 5.76438C35.7377 3.38126 35.806 2.68347 36.0312 2.76522C36.1927 2.82374 38.2649 3.33719 40.6364 3.90655ZM53.4754 9.23102L56.1551 11.5947L54.2217 13.4227C53.1582 14.428 52.23 15.2545 52.1588 15.259C52.0445 15.2663 48.6459 7.96909 48.5642 7.54118C48.5309 7.36632 50.2636 6.76047 50.6029 6.82847C50.709 6.8498 52.0015 7.93094 53.4754 9.23102ZM21.0095 7.41584C21.2144 7.62221 17.6602 15.5476 17.4064 15.4499C17.3146 15.4146 16.3913 14.624 15.3541 13.693L13.4688 12.0004L16.2105 9.48929C18.9013 7.02513 18.9701 6.98059 19.8915 7.10687C20.408 7.17772 20.9111 7.3168 21.0095 7.41584ZM28.1769 9.53857L32.7058 10.9121L30.0509 13.4139L27.3961 15.9158L23.4714 16.0904L19.5467 16.2652L20.7404 13.693C21.397 12.2783 22.234 10.4546 22.6002 9.63998C22.9664 8.82562 23.3519 8.16054 23.4568 8.1622C23.5618 8.16385 25.6858 8.78321 28.1769 9.53857ZM46.9608 9.28457C47.2261 9.90346 48.0316 11.6715 48.7506 13.2132L50.058 16.0162L46.0098 15.8435L41.9614 15.6705L39.4291 13.2895L36.897 10.9085L41.306 9.55468C43.7308 8.81022 45.8868 8.19158 46.0969 8.17997C46.3375 8.16693 46.657 8.57542 46.9608 9.28457ZM37.0289 13.971L39.1417 15.9698L34.7987 15.9738L30.4557 15.9776L32.5685 13.9755C33.7305 12.8744 34.7341 11.9731 34.7987 11.9726C34.8633 11.9724 35.8668 12.8716 37.0289 13.971ZM59.9106 15.0237C61.5755 16.5576 62.0525 17.1554 62.4511 18.2065C62.9274 19.4627 62.93 19.5419 62.5436 20.9253L62.1455 22.3505L57.8656 19.6973C55.5119 18.2382 53.5939 16.991 53.6038 16.9258C53.623 16.7988 57.6292 13.1696 57.7743 13.1479C57.8217 13.1407 58.783 13.9847 59.9106 15.0237ZM14.0942 15.4533L16.0439 17.2812L11.9814 19.8177L7.91887 22.3543L7.474 20.9787L7.02937 19.603L7.59138 18.157C8.05949 16.9528 8.44754 16.451 9.90985 15.1597C10.8759 14.3067 11.7738 13.6125 11.9053 13.617C12.037 13.6215 13.0218 14.4479 14.0942 15.4533ZM49.4709 18.1105H50.6909L50.832 21.1239C50.9095 22.781 50.9468 24.1636 50.9148 24.1958C50.8829 24.228 49.4359 22.8064 47.6989 21.0365L44.5412 17.8184L46.396 17.9646C47.416 18.0449 48.7997 18.1105 49.4709 18.1105ZM21.736 21.2784C20.0761 23.0208 18.7008 24.4335 18.6804 24.4178C18.66 24.4022 18.7016 23.0339 18.7729 21.3772L18.9027 18.365L20.9231 18.2863C22.0342 18.2432 23.3509 18.1861 23.8489 18.1593L24.7543 18.1105L21.736 21.2784ZM46.241 23.1433L50.997 27.9392V34.8104V41.6816L46.2453 46.4817L41.4935 51.2819H34.8029H28.1123L23.3563 46.486L18.6004 41.6901V34.8189V27.9477L23.3521 23.1476L28.1039 18.3475H34.7945H41.4851L46.241 23.1433ZM57.4968 21.9947L61.5036 24.5064L60.2998 28.6841L59.0962 32.8618L57.3761 30.995C56.43 29.9683 55.0968 28.4884 54.4132 27.7065L53.1704 26.2849L53.0014 22.7564C52.8589 19.7795 52.8838 19.2478 53.1613 19.3554C53.3423 19.4253 55.2931 20.6131 57.4968 21.9947ZM16.6103 23.1353L16.438 26.7382L13.7223 29.6572C12.2288 31.2627 10.9322 32.4936 10.8411 32.3924C10.5301 32.0463 8.51515 24.6405 8.68676 24.4733C9.00979 24.1586 16.3702 19.5634 16.5763 19.5478C16.6932 19.5388 16.708 21.091 16.6103 23.1353ZM5.7281 23.6151C5.55391 23.7909 5.52339 23.6982 5.62551 23.3042C5.70862 22.9839 5.81496 22.8763 5.87365 23.0538C5.93 23.2248 5.86473 23.4772 5.7281 23.6151ZM64.3782 23.4556C64.3782 23.6587 64.271 23.7579 64.1397 23.6762C64.0085 23.5942 63.9618 23.4281 64.0362 23.3068C64.2374 22.9782 64.3782 23.0393 64.3782 23.4556ZM7.8205 29.8785C8.45482 32.0721 8.97434 33.8937 8.97458 33.9262C8.97504 33.9586 7.61415 33.9854 5.95089 33.9854C3.01265 33.9854 2.92227 33.9702 2.7847 33.4523C2.50346 32.3932 2.64995 31.3904 3.38287 29.3599C4.08033 27.4276 4.20687 27.2419 5.31962 26.5178C5.9746 26.0915 6.54553 25.7759 6.58873 25.8165C6.63169 25.857 7.18595 27.685 7.8205 29.8785ZM66.658 29.4454C67.3306 31.262 67.4493 31.8454 67.3219 32.7033L67.1665 33.7484H64.1132C61.3161 33.7484 61.07 33.7136 61.1806 33.3338C61.2468 33.1056 61.7393 31.3734 62.2748 29.484C62.8105 27.5949 63.2974 25.9695 63.3568 25.8721C63.4164 25.775 63.9993 26.0413 64.652 26.464C65.7689 27.1872 65.8873 27.3632 66.658 29.4454ZM57.536 35.3852C57.2921 35.6989 56.3018 36.7905 55.3358 37.8112L53.5794 39.6667L53.5841 34.8713L53.5887 30.0759L55.7842 32.4453L57.9797 34.8147L57.536 35.3852ZM16.0068 34.8739L15.9955 39.3165L13.9162 37.0815L11.8372 34.8462L13.8688 32.6438C14.9863 31.4324 15.9269 30.4391 15.9593 30.4363C15.9917 30.4334 16.0129 32.4306 16.0068 34.8739ZM8.88725 36.2088C8.93561 36.2538 6.44881 44.1962 6.35772 44.2882C6.31171 44.3348 5.73562 44.0354 5.07782 43.6228L3.88173 42.8729L3.59697 40.3839C3.44038 39.0149 3.25281 37.4511 3.18027 36.909L3.0481 35.9228L5.953 36.052C7.55077 36.123 8.87105 36.1934 8.88725 36.2088ZM66.8723 36.5325C66.8033 36.8907 66.6211 38.3578 66.4676 39.7923L66.1882 42.4007L64.9158 43.1928C64.216 43.6285 63.5946 43.9358 63.5352 43.8757C63.4244 43.7638 61.0916 36.2605 61.0916 36.0159C61.0916 35.9418 62.4206 35.8809 64.0446 35.8809H66.9979L66.8723 36.5325ZM61.5611 45.1115C61.5611 45.3418 53.0821 50.6222 52.941 50.4798C52.8793 50.4175 52.9044 48.7848 52.9967 46.8516L53.1648 43.3366L56.1298 40.1339L59.095 36.931L60.3282 40.9367C61.0062 43.14 61.5611 45.0184 61.5611 45.1115ZM14.4055 40.8815L16.4319 43.1075L16.6052 46.9893C16.7507 50.2455 16.7268 50.8402 16.457 50.6789C14.3186 49.4006 8.78865 45.9304 8.56328 45.7254C8.32829 45.5117 8.36139 45.1715 8.7269 44.0455C8.97904 43.2691 9.57415 41.3558 10.0495 39.7942L10.9137 36.9549L11.6466 37.8051C12.0494 38.2728 13.2911 39.657 14.4055 40.8815ZM23.7113 51.951C22.9016 51.9932 21.4731 51.9574 20.5371 51.8716L18.8351 51.7152V49.9932C18.8351 49.0461 18.7701 47.5892 18.6903 46.7556L18.5457 45.24L21.8645 48.5571L25.1835 51.8742L23.7113 51.951ZM50.8334 48.4737L50.6939 51.4551L48.9319 51.6055C47.963 51.6882 46.58 51.7558 45.8589 51.7558H44.5477L47.7022 48.5654C49.4373 46.8106 50.8829 45.4013 50.9148 45.4335C50.9468 45.4658 50.9102 46.8338 50.8334 48.4737ZM65.6607 46.3654C65.5685 46.9194 65.352 47.5769 65.1795 47.8266C64.8769 48.2652 64.8586 48.2609 64.6534 47.7081C64.1221 46.2761 64.1282 46.1887 64.7902 45.7742C65.738 45.1812 65.8455 45.2542 65.6607 46.3654ZM5.16797 46.2019C5.57293 46.4881 5.65721 46.7147 5.54194 47.2089C5.30624 48.2197 5.05247 48.3111 4.6522 47.53C4.25922 46.763 4.15546 45.8323 4.46252 45.8323C4.563 45.8323 4.88039 45.9986 5.16797 46.2019ZM62.7847 48.9262C63.0253 49.6354 63.1803 50.3836 63.1286 50.5888C63.03 50.9819 58.7891 57.2053 58.6199 57.2053C58.4609 57.2053 53.9383 53.0767 53.8608 52.8608C53.7784 52.6322 61.8067 47.5117 62.1302 47.5866C62.2497 47.6143 62.5441 48.2171 62.7847 48.9262ZM12.3396 50.6864C15.8793 52.8971 16.0356 53.0265 15.6262 53.4065C13.6881 55.2065 11.3034 57.2608 11.2435 57.1826C10.3014 55.9557 6.86245 50.6945 6.86245 50.4803C6.86245 50.3168 7.02726 49.6228 7.22891 48.9376C7.58246 47.7361 7.61345 47.7041 8.10926 48.0289C8.3919 48.2142 10.2956 49.4101 12.3396 50.6864ZM37.1498 55.7955C35.9251 56.9618 34.867 57.9161 34.7987 57.9161C34.7304 57.9161 33.6723 56.9618 32.4476 55.7955L30.2209 53.675H34.7987H39.3765L37.1498 55.7955ZM50.058 53.7915C50.058 53.8685 49.245 55.7076 48.2513 57.8787C47.2578 60.0495 46.4364 61.846 46.4263 61.8709C46.4061 61.9204 37.0615 59.088 36.9772 59.007C36.9491 58.9795 38.1398 57.8434 39.6237 56.482L42.3218 54.0067L45.3095 53.8773C46.9528 53.8062 48.6936 53.7261 49.1776 53.6996C49.6619 53.6731 50.058 53.7143 50.058 53.7915ZM27.6728 54.5618C28.0792 54.7777 29.376 55.8702 30.555 56.9897L32.6983 59.0248L28.1839 60.3919C25.7009 61.144 23.5587 61.8019 23.4232 61.8543C23.2434 61.924 20.4423 56.278 19.5913 54.1303C19.5551 54.0394 21.1926 54.0109 23.23 54.0671C26.0755 54.1455 27.1054 54.2602 27.6728 54.5618ZM54.7966 56.7547C56.1284 57.9403 57.2493 58.9949 57.2878 59.098C57.4531 59.5434 56.0934 60.5635 53.5794 61.8797L50.8796 63.2932L49.6612 62.9148L48.4428 62.5364L50.2481 58.5741C51.2409 56.3948 52.1257 54.6087 52.2142 54.6054C52.303 54.6019 53.465 55.569 54.7966 56.7547ZM19.3546 58.7279L21.1315 62.6201L19.9885 62.8968L18.8452 63.1736L16.0816 61.6901C13.4075 60.2545 12.7547 59.7638 12.7389 59.1783C12.7314 58.8983 17.1026 54.8359 17.4116 54.8359C17.5029 54.8359 18.3771 56.5874 19.3546 58.7279ZM33.8597 64.3135V67.6306H30.5637C26.4087 67.6306 25.7591 67.3705 24.7186 65.2901L24.0261 63.9057L28.6494 62.4758C31.1923 61.6894 33.4049 61.0347 33.5662 61.0212C33.7881 61.0023 33.8597 61.8045 33.8597 64.3135ZM40.5294 62.3386C42.9941 63.0769 45.1006 63.7593 45.2105 63.8552C45.3203 63.951 45.1297 64.6601 44.7867 65.4311C43.8644 67.5055 43.5514 67.6306 39.2816 67.6306H35.7377V64.3135C35.7377 62.4891 35.8077 60.9963 35.8929 60.9963C35.9784 60.9963 38.0649 61.6003 40.5294 62.3386ZM48.1799 64.6606C48.1799 64.721 47.971 64.8836 47.7158 65.0215C47.3369 65.2259 47.2768 65.2058 47.3885 64.9113C47.5102 64.5914 48.1799 64.3793 48.1799 64.6606Z" fill="white"/>
</svg>
